<!DOCTYPE svg PUBLIC "-//W3C//DTD SVG 1.1//EN" "http://www.w3.org/Graphics/SVG/1.1/DTD/svg11.dtd">
<!-- Uploaded to: SVG Repo, www.svgrepo.com, Transformed by: SVG Repo Mixer Tools -->
<svg width="800px" height="800px" viewBox="0 0 32 32" id="OBJECT" xmlns="http://www.w3.org/2000/svg" fill="#507692">
<g id="SVGRepo_bgCarrier" stroke-width="0"/>
<g id="SVGRepo_tracerCarrier" stroke-linecap="round" stroke-linejoin="round"/>
<g id="SVGRepo_iconCarrier">
<defs>
<style>.cls-1{fill:#b2b2b2;}</style>
</defs>
<title/>
<path class="cls-1" d="M28,9H4a1,1,0,0,0-1,1V28a3,3,0,0,0,3,3H26a3,3,0,0,0,3-3V10A1,1,0,0,0,28,9Z"/>
<path d="M20,14H12a3,3,0,0,0,0,6h8a3,3,0,0,0,0-6Z"/>
<path d="M24,28H18a1,1,0,0,1,0-2h6a1,1,0,0,1,0,2Z"/>
<path d="M24,25H21a1,1,0,0,1,0-2h3a1,1,0,0,1,0,2Z"/>
<path d="M30,1H2A1,1,0,0,0,1,2V8a3,3,0,0,0,3,3H28a3,3,0,0,0,3-3V2A1,1,0,0,0,30,1Z"/>
</g>
</svg>