<!DOCTYPE svg PUBLIC "-//W3C//DTD SVG 1.1//EN" "http://www.w3.org/Graphics/SVG/1.1/DTD/svg11.dtd">
<!-- Uploaded to: SVG Repo, www.svgrepo.com, Transformed by: SVG Repo Mixer Tools -->
<svg width="800px" height="800px" viewBox="0 0 32 32" id="OBJECT" xmlns="http://www.w3.org/2000/svg" fill="#507692">
<g id="SVGRepo_bgCarrier" stroke-width="0"/>
<g id="SVGRepo_tracerCarrier" stroke-linecap="round" stroke-linejoin="round"/>
<g id="SVGRepo_iconCarrier">
<defs>
<style>.cls-1{fill:#b2b2b2;}</style>
</defs>
<title/>
<path d="M8,14H6A5,5,0,0,1,1,9V5A1,1,0,0,1,2,4H8V6H3V9a3,3,0,0,0,3,3H8Z"/>
<path d="M26,14H24V12h2a3,3,0,0,0,3-3V6H24V4h6a1,1,0,0,1,1,1V9A5,5,0,0,1,26,14Z"/>
<path d="M19,17.88A1,1,0,0,0,18,17H14a1,1,0,0,0-1,.88l-1,8a1,1,0,0,0,.24.78A1,1,0,0,0,13,27h6a1,1,0,0,0,.75-.34,1,1,0,0,0,.24-.78Z"/>
<path class="cls-1" d="M24,1H8A1,1,0,0,0,7,2V13a.94.94,0,0,0,.07.37l1.5,3.74A3,3,0,0,0,11.35,19h9.3a3,3,0,0,0,2.78-1.89l1.5-3.74A.94.94,0,0,0,25,13V2A1,1,0,0,0,24,1Z"/>
<path class="cls-1" d="M22,25H10a3,3,0,0,0-3,3v2a1,1,0,0,0,1,1H24a1,1,0,0,0,1-1V28A3,3,0,0,0,22,25Z"/>
</g>
</svg>