<svg xmlns="http://www.w3.org/2000/svg" viewBox="0 0 1308 1350" fill="#6B4226">
<path d="M1033.77 1021.55c-21.6 24.24-40.11 38.92-50.31 45.93-4.8 3.19-7.8 7.65-11.99 11.48-22.2 19.14-46.26 24.83-63.06 38.23-22.8 17.86-107.98 39.1-132.18 46.54-40.96 9.31-87.03 12.67-137.43 10.75-10.91 0-20.99 0-30.26-.72-3.76-.3-7.54.67-11.31.72h-.42c-.4 0-1.07-.29-2.01-.86-1.06-.65-2.26-1.06-3.51-1.06-.33 0-.65-.03-.97-.07-5.08-.7-7.78 1.09-9.73 2.08-1.48.75-3.09.12-4.49-.77-4.43-2.81-14.32-9.14-17.68-10.16-3.32-1.01-3.64.37-5.41.68-1.18.21-2.41-.21-3.3-1.01-.99-.9-2.06-2.2-4.5-3.5-4.49-2.39-6.88 3.04-13.55-3.03-.97-.88-1.54-2.61-2.85-2.7-.33-.02-.56-.04-.89-.1-6.72-1.3-18.92-3.8-27.12-6.29-9.6-2.55-6.61-4.46-10.81-6.37-56.4-21.05-136.79-62.52-166.19-91.86-10.8-10.84-23.4-35.72-31.2-42.1-6-5.1-18-15.31-21-20.41-2.4-4.47-.004-12.75-4.2-18.49-5.4-7.02-16.2-10.85-26.4-26.8-11.4-17.86-18-41.46-29.4-65.7C202 854.91 175 786.02 175 660.36c0-84.2 39-200.93 55.8-216.88 10.8-10.21 9.6-32.53 17.39-43.37 89.01-123.75 244.8-214.79 430.2-224.35 7.53-.39 15.07-.63 22.62-.72 45.74-.53 91.58 4.47 136.04 15.31 44.41 10.83 86.87 27.73 128.26 46.95 0 0 4.91.39 6.21 1.03 2.16 1.06 3.07 2.99 5.23 4.06 2.16 1.06 5.28.16 7.64.64 7.77 1.59 9.17 6.21 10.6 8.05 1.74 2.23 3.83 3.09 7.78 4.22 10.31 2.96 11.67 6.37 13.07 7.94 1.12 1.25 1.61 2.88 2.17 4.34.57 1.48 1.7 2.84 3.28 3.21 3.42.8 8.06 4.98 9.02 10.69.63 3.72 4.65 5.32 3.55 12.3-.36 2.26 2.05 5.6-10.6 18.07s-39.18 20.33-55.34 14.14c-55.85-21.41-64.13-25.53-86.57-31.65-40.96-11.17-75.85-18.76-118.36-17.96-67.8 1.28-121.21 7.66-185.41 29.98-28.14 9.97-81.27 37.11-107.93 58.24-26.66 21.13-65.26 50.32-81.19 77.33-5.58 9.46-11.86 18.5-25.06 33.17-19.2 21.05-41.42 81.93-48.62 111.28-1.8 6.38 2.99 13.4.59 19.78-2.4 7.02-13.8 10.21-15 15.95-4.8 20.41-3.6 46.56-3.6 68.88 0 12.12 3.6 28.7 7.8 38.27 3 6.38 12.6 10.85 13.8 17.22.6 4.46-5.39 9.56-5.4 13.39 0 3.19 5.39 46.57 8.39 52.95 4.2 7.65 17.4 17.22 21 26.15 2.4 6.38-4.21 12.76.59 19.14 3 3.83 12.61 3.82 16.21 8.92 4.8 6.38 15 24.87 19.8 30.62 3.6 4.47 10.2 6.39 13.2 8.3 9 6.38 1.2 12.11 9.6 21.68 26.4 29.98 67.2 66.98 106.2 83.57 6.02 2.56 67.75 26.13 71.39 26.15 87 12.83 184.84 11.63 269.44-35.58 19.8-10.85 131.97-88.81 150.57-181.3 4.2-18.5 9.6-63.16 7.2-81.02-9.6-66.34-50.48-161.76-125.41-197.09-39.91-18.82-70.2-18.5-78-17.22-22.8 4.46-30.6-8.93-51.6-7.02-64.2 5.1-127.2 22.97-176.4 74.63-45 47.84-54.01 109.08-31.21 147.99 2.4 5.1 1.2 11.48-3.6 14.67-2.1 1.28-4.05 2.87-4.95 4.55-1.79 3.33 3.39 5.11 6.95 6.36 24.96 8.73 33.96 50.84 67 49.06h7.2s13.8 0 19.2-6.38c4.44-5.24 4.42-11.35 1.27-14.06-1.4-1.21-3.18-1.93-3.59-3.74-.45-1.99-.68-4.61-.68-5.79 0-1.28 1.8-1.92 1.8-3.2 0-3.83-4.2-7.01-3.6-10.84.38-2.04 3.21-4.85 5.21-6.96 1.52-1.6 1.54-3.63.55-5.6l-.11-.21c-.96-1.97-1.14-4.32-.49-6.41.38-1.2.83-2.49.83-3.78.6-5.74-1.79-8.29-2.39-12.76 0-1.58 8.54-5.32 11.56-7.66.89-.69.98-1.84.69-2.93-.62-2.32-1.45-3.03-1.45-7.27 0-1.02.86-2.44 1.89-3.79 2.08-2.71 4-5.6 4.94-8.88l1.66-5.79c.69-2.42 2.53-4.34 4.92-5.15 4.13-1.39 2.22-8.13 6.16-10.01 1.15-.55 4.02.15 8.63-.83 9.59-1.91 3-5.1 4.8-10.21.84-3.12 3.44-2.81 5.96-2.56 2.02.2 3.98-.46 5.43-1.88 1.43-1.39 2.87-3.02 4.81-3.85 2.43-1.03 8.81-1.23 13.38-1.27 1.88-.02 3.74-.29 5.61-.51 5.1-.6 12.33-.24 15.82-.77 4.2-.64 6.6-4.47 10.19-4.47 3 0 7.21 5.1 10.21 5.1 3 0 6-2.55 9-2.55 1.8 0 2.4 3.19 5.4 3.19h1.2s27.6.64 56.4 18.49c19.8 12.12 34.2 41.47 34.2 41.47 13.8 23.6-1.51 47.86-1.51 69.55 0 8.93 3 16.58 1.2 24.88-1.2 6.38-6 11.49-7.8 16.59-1.8 4.46-1.79 10.21-7.79 18.49-4.8 7.02-7.21 7.01-8.41 8.29-1.8 1.91-17.34 25.41-27.54 34.34-27 24.24-51.96 31.34-88.56 31.97-16.2.64-18 3.83-20.4 3.83-8.4.64-46.79-1.27-58.8-3.19 0 0-53.4-10.21-74.4-20.41-11.4-5.1-86.41-60.6-103.21-91.86-52.2-98.23-40.2-202.84 13.8-273.01 39-51.03 103.2-117.37 255.59-130.13 77.4-6.38 146.41 3.83 200.41 29.35 76.2 35.72 132 98.87 166.8 173.5C1154.8 743.28 1151.37 887.6 1033.77 1021.55z"/>
</svg>
