<!DOCTYPE svg PUBLIC "-//W3C//DTD SVG 1.1//EN" "http://www.w3.org/Graphics/SVG/1.1/DTD/svg11.dtd">
<!-- Uploaded to: SVG Repo, www.svgrepo.com, Transformed by: SVG Repo Mixer Tools -->
<svg version="1.1" id="Uploaded to svgrepo.com" xmlns="http://www.w3.org/2000/svg" xmlns:xlink="http://www.w3.org/1999/xlink" width="800px" height="800px" viewBox="0 0 32 32" xml:space="preserve" fill="#000000">
<g id="SVGRepo_bgCarrier" stroke-width="0"/>
<g id="SVGRepo_tracerCarrier" stroke-linecap="round" stroke-linejoin="round"/>
<g id="SVGRepo_iconCarrier"> <style type="text/css"> .bentblocks_een{fill:#507692;} </style> <path class="bentblocks_een" d="M23.2,7.2c-1.71,0-4.205,1.994-5.764,3.412C17.072,10.236,16.565,10,16,10s-1.072,0.236-1.436,0.612 C13.005,9.194,10.51,7.2,8.8,7.2C6.149,7.2,4,9.349,4,12c0,2.651,2.149,4.8,4.8,4.8c1.571,0,3.802-1.683,5.365-3.056L9.081,25.606 l1.838,0.788L16,14.538l5.081,11.856l1.838-0.788l-5.084-11.862c1.562,1.373,3.794,3.056,5.365,3.056c2.651,0,4.8-2.149,4.8-4.8 C28,9.349,25.851,7.2,23.2,7.2z M8.8,14.8C7.256,14.8,6,13.544,6,12s1.256-2.8,2.8-2.8c0.731,0,2.57,1.221,4.33,2.8 C11.369,13.579,9.53,14.8,8.8,14.8z M23.2,14.8c-0.73,0-2.57-1.221-4.33-2.8c1.76-1.579,3.599-2.8,4.33-2.8 c1.544,0,2.8,1.256,2.8,2.8S24.744,14.8,23.2,14.8z"/> </g>
</svg>