<?xml version="1.0" encoding="iso-8859-1"?>
<!-- Uploaded to: SVG Repo, www.svgrepo.com, Generator: SVG Repo Mixer Tools -->
<svg version="1.1" id="Capa_1" xmlns="http://www.w3.org/2000/svg" xmlns:xlink="http://www.w3.org/1999/xlink" 
	 viewBox="0 0 330 330" xml:space="preserve">
<g id="XMLID_1034_">
	<rect id="XMLID_1035_" x="165" y="10" style="fill:#006DF0;" width="160" height="240"/>
	<rect id="XMLID_1036_" x="5" y="10" style="fill:#0052B4;" width="160" height="240"/>
	<rect id="XMLID_1037_" x="165" style="fill:#0052B4;" width="160" height="40"/>
	<rect id="XMLID_1038_" x="5" style="fill:#003778;" width="160" height="40"/>
	<rect id="XMLID_1039_" x="35" y="40" style="fill:#FFFFFF;" width="260" height="180"/>
	<rect id="XMLID_44_" x="65" y="69.998" style="fill:#FF5023;" width="50" height="30"/>
	<rect id="XMLID_43_" x="114.998" y="69.996" style="fill:#FF9811;" width="150" height="30"/>
	<rect id="XMLID_42_" x="115" y="100" style="fill:#E4F1FB;" width="50" height="30"/>
	<rect id="XMLID_41_" x="165" y="99.998" style="fill:#78B9EB;" width="50" height="30"/>
	<rect id="XMLID_40_" x="215" y="100" style="fill:#E4F1FB;" width="50" height="30"/>
	<rect id="XMLID_39_" x="115" y="160" style="fill:#E4F1FB;" width="50" height="30"/>
	<rect id="XMLID_38_" x="165" y="159.998" style="fill:#78B9EB;" width="50" height="30"/>
	<rect id="XMLID_37_" x="215" y="159.998" style="fill:#E4F1FB;" width="50" height="30"/>
	<rect id="XMLID_36_" x="214.999" y="129.997" style="fill:#78B9EB;" width="50" height="30"/>
	<rect id="XMLID_35_" x="164.999" y="129.999" style="fill:#E4F1FB;" width="50" height="30"/>
	<rect id="XMLID_34_" x="114.999" y="129.997" style="fill:#78B9EB;" width="50" height="30"/>
	<rect id="XMLID_33_" x="65.003" y="100" style="fill:#FFDA44;" width="50" height="90"/>
	<rect id="XMLID_1040_" x="150" y="250" style="fill:#003778;" width="30" height="60"/>
	<rect id="XMLID_3_" x="35.003" y="300" style="fill:#003778;" width="260" height="30"/>
</g>
</svg>