<?xml version="1.0" encoding="iso-8859-1"?>
<!-- Uploaded to: SVG Repo, www.svgrepo.com, Generator: SVG Repo Mixer Tools -->
<svg height="800px" width="800px" version="1.1" id="Capa_1" xmlns="http://www.w3.org/2000/svg" xmlns:xlink="http://www.w3.org/1999/xlink" 
	 viewBox="0 0 320 320" xml:space="preserve">
<g id="XMLID_1063_">
	<polygon id="XMLID_42_" style="fill:#CDCDD0;" points="155,180 265,180 295,215 265,250 155,250 	"/>
	<polygon id="XMLID_41_" style="fill:#ACABB1;" points="265,180 295,215 265,250 155,250 	"/>
	<polygon id="XMLID_40_" style="fill:#CDCDD0;" points="155,40 265,40 295,75 265,110 155,110 	"/>
	<polygon id="XMLID_39_" style="fill:#ACABB1;" points="265,40 295,75 265,110 155,110 	"/>
	<polygon id="XMLID_38_" style="fill:#CDCDD0;" points="155,110 265,110 295,145 265,180 155,180 	"/>
	<polygon id="XMLID_37_" style="fill:#ACABB1;" points="265,110 295,145 265,180 155,180 	"/>
	<path id="XMLID_1064_" style="fill:#0052B4;" d="M195,290c0,11.046-8.954,20-20,20l0,0c-11.046,0-20-8.954-20-20V20
		c0-11.046,8.954-20,20-20l0,0c11.046,0,20,8.954,20,20V290z"/>
	<polygon id="XMLID_1065_" style="fill:#0052B4;" points="175,320 125,320 125,290 175,280 	"/>
	<polygon id="XMLID_1066_" style="fill:#006DF0;" points="225,320 175,320 175,280 225,290 	"/>
	<g id="XMLID_1067_">
		<polygon id="XMLID_33_" style="fill:#FFDA44;" points="195,179.999 55,179.999 25,144.999 55,109.999 195,109.999 		"/>
		<polygon id="XMLID_32_" style="fill:#FF9811;" points="195,179.999 55,179.999 195,109.999 		"/>
	</g>
</g>
</svg>